<svg id="svg" version="1.1" xmlns="http://www.w3.org/2000/svg" xmlns:xlink="http://www.w3.org/1999/xlink" width="400" height="400" viewBox="0, 0, 400,400"><g id="svgg"><path id="path0" d="M190.000 34.040 C 188.570 34.221,184.995 34.558,182.057 34.788 C 179.118 35.018,176.554 35.305,176.360 35.425 C 176.165 35.545,174.250 35.898,172.103 36.209 C 167.394 36.891,164.406 37.481,162.000 38.201 C 161.010 38.498,159.349 38.854,158.309 38.993 C 157.269 39.132,156.320 39.405,156.200 39.600 C 156.080 39.795,155.131 40.077,154.091 40.227 C 153.051 40.378,152.013 40.649,151.784 40.830 C 151.556 41.010,150.656 41.336,149.784 41.554 C 147.021 42.243,139.546 44.994,137.068 46.234 C 136.445 46.545,135.744 46.800,135.511 46.800 C 135.093 46.800,131.961 48.162,130.800 48.850 C 130.470 49.045,129.930 49.315,129.600 49.448 C 128.947 49.713,123.033 52.612,121.900 53.223 C 121.515 53.430,120.885 53.781,120.500 54.003 C 120.115 54.225,119.350 54.626,118.800 54.895 C 118.250 55.164,117.706 55.511,117.592 55.667 C 117.477 55.823,116.937 56.144,116.392 56.381 C 115.846 56.618,114.924 57.124,114.343 57.506 C 112.680 58.598,108.833 60.948,107.768 61.522 C 107.236 61.809,106.800 62.214,106.800 62.422 C 106.800 62.630,106.558 62.800,106.262 62.800 C 105.966 62.800,105.398 63.160,105.000 63.600 C 104.602 64.040,104.053 64.400,103.781 64.400 C 103.508 64.400,103.182 64.670,103.055 65.000 C 102.929 65.330,102.636 65.600,102.404 65.600 C 102.008 65.600,97.069 69.239,96.200 70.171 C 95.980 70.407,94.450 71.668,92.800 72.974 C 89.024 75.962,76.158 88.823,72.988 92.778 C 71.674 94.417,70.181 96.213,69.669 96.770 C 69.157 97.327,68.182 98.642,67.502 99.692 C 66.822 100.741,66.116 101.600,65.933 101.600 C 65.750 101.600,65.600 101.876,65.600 102.213 C 65.600 102.549,65.330 102.929,65.000 103.055 C 64.670 103.182,64.400 103.508,64.400 103.781 C 64.400 104.053,64.040 104.602,63.600 105.000 C 63.160 105.398,62.800 105.966,62.800 106.262 C 62.800 106.558,62.616 106.800,62.390 106.800 C 62.165 106.800,61.803 107.205,61.586 107.700 C 61.369 108.195,60.475 109.680,59.598 111.000 C 58.722 112.320,57.878 113.670,57.722 114.000 C 57.565 114.330,56.941 115.337,56.333 116.237 C 55.725 117.138,55.042 118.308,54.815 118.837 C 54.588 119.367,54.221 120.115,54.001 120.500 C 53.239 121.831,52.839 122.614,51.191 126.000 C 50.281 127.870,49.369 129.670,49.165 130.000 C 48.962 130.330,48.692 130.870,48.565 131.200 C 48.439 131.530,47.990 132.540,47.568 133.444 C 47.145 134.348,46.800 135.278,46.800 135.511 C 46.800 135.744,46.545 136.445,46.234 137.068 C 44.268 140.998,41.148 150.273,39.192 158.000 C 38.941 158.990,38.497 160.700,38.205 161.800 C 35.890 170.506,33.586 189.565,33.586 200.000 C 33.586 210.435,35.890 229.494,38.205 238.200 C 38.497 239.300,38.941 241.010,39.192 242.000 C 41.148 249.727,44.268 259.002,46.234 262.932 C 46.545 263.555,46.800 264.256,46.800 264.489 C 46.800 264.907,48.162 268.039,48.850 269.200 C 49.045 269.530,49.315 270.070,49.448 270.400 C 49.713 271.053,52.612 276.967,53.223 278.100 C 53.430 278.485,53.780 279.115,54.001 279.500 C 54.221 279.885,54.588 280.633,54.815 281.163 C 55.042 281.692,55.725 282.862,56.333 283.763 C 56.941 284.663,57.565 285.670,57.722 286.000 C 57.878 286.330,58.722 287.680,59.598 289.000 C 60.475 290.320,61.369 291.805,61.586 292.300 C 61.803 292.795,62.165 293.200,62.390 293.200 C 62.616 293.200,62.800 293.442,62.800 293.738 C 62.800 294.034,63.160 294.602,63.600 295.000 C 64.040 295.398,64.400 295.966,64.400 296.262 C 64.400 296.558,64.586 296.800,64.813 296.800 C 65.039 296.800,65.344 297.115,65.490 297.500 C 65.752 298.194,69.347 303.032,70.171 303.800 C 70.407 304.020,71.672 305.550,72.983 307.200 C 76.104 311.130,88.975 324.010,92.800 327.031 C 94.450 328.334,95.980 329.593,96.200 329.829 C 96.968 330.653,101.806 334.248,102.500 334.510 C 102.885 334.656,103.200 334.961,103.200 335.187 C 103.200 335.414,103.442 335.600,103.738 335.600 C 104.034 335.600,104.602 335.960,105.000 336.400 C 105.398 336.840,105.966 337.200,106.262 337.200 C 106.558 337.200,106.800 337.384,106.800 337.610 C 106.800 337.835,107.205 338.197,107.700 338.414 C 108.195 338.631,109.680 339.525,111.000 340.402 C 112.320 341.278,113.670 342.122,114.000 342.278 C 114.330 342.435,115.337 343.059,116.237 343.667 C 117.138 344.275,118.308 344.958,118.837 345.185 C 119.367 345.412,120.070 345.750,120.400 345.936 C 122.058 346.870,122.863 347.283,126.000 348.809 C 127.870 349.719,129.670 350.631,130.000 350.835 C 130.330 351.038,130.870 351.308,131.200 351.435 C 131.530 351.561,132.540 352.010,133.444 352.432 C 134.348 352.855,135.278 353.200,135.511 353.200 C 135.744 353.200,136.445 353.455,137.068 353.766 C 139.546 355.006,147.021 357.757,149.784 358.446 C 150.656 358.664,151.556 358.990,151.784 359.170 C 152.013 359.351,153.051 359.622,154.091 359.773 C 155.131 359.923,156.080 360.205,156.200 360.400 C 156.320 360.595,157.269 360.868,158.309 361.007 C 159.349 361.146,161.010 361.502,162.000 361.799 C 166.337 363.098,172.196 364.026,186.400 365.663 C 192.268 366.340,204.896 366.539,209.200 366.023 C 211.290 365.773,215.399 365.397,218.332 365.188 C 221.264 364.979,223.855 364.689,224.089 364.545 C 224.324 364.400,226.154 364.044,228.158 363.754 C 232.603 363.111,235.622 362.511,238.000 361.799 C 238.990 361.502,240.651 361.146,241.691 361.007 C 242.731 360.868,243.680 360.595,243.800 360.400 C 243.920 360.205,244.869 359.923,245.909 359.773 C 246.949 359.622,247.987 359.351,248.216 359.170 C 248.444 358.990,249.344 358.664,250.216 358.446 C 252.979 357.757,260.454 355.006,262.932 353.766 C 263.555 353.455,264.256 353.200,264.489 353.200 C 264.907 353.200,268.039 351.838,269.200 351.150 C 269.530 350.955,270.070 350.685,270.400 350.552 C 271.053 350.287,276.967 347.388,278.100 346.777 C 278.485 346.570,279.115 346.220,279.500 345.999 C 279.885 345.779,280.633 345.412,281.163 345.185 C 281.692 344.958,282.862 344.275,283.763 343.667 C 284.663 343.059,285.670 342.435,286.000 342.278 C 286.330 342.122,287.680 341.278,289.000 340.402 C 290.320 339.525,291.805 338.631,292.300 338.414 C 292.795 338.197,293.200 337.835,293.200 337.610 C 293.200 337.384,293.442 337.200,293.738 337.200 C 294.034 337.200,294.602 336.840,295.000 336.400 C 295.398 335.960,295.966 335.600,296.262 335.600 C 296.558 335.600,296.800 335.414,296.800 335.187 C 296.800 334.961,297.115 334.656,297.500 334.510 C 298.194 334.248,303.032 330.653,303.800 329.829 C 304.020 329.593,305.550 328.337,307.200 327.038 C 310.990 324.055,323.859 311.169,327.013 307.200 C 328.324 305.550,329.515 304.110,329.659 304.000 C 329.804 303.890,331.012 302.360,332.345 300.600 C 333.678 298.840,334.955 297.183,335.184 296.917 C 335.413 296.651,335.600 296.274,335.600 296.079 C 335.600 295.884,335.960 295.398,336.400 295.000 C 336.840 294.602,337.200 294.034,337.200 293.738 C 337.200 293.442,337.384 293.200,337.610 293.200 C 337.835 293.200,338.197 292.795,338.414 292.300 C 338.631 291.805,339.525 290.320,340.402 289.000 C 341.278 287.680,342.122 286.330,342.278 286.000 C 342.435 285.670,343.059 284.663,343.667 283.763 C 344.275 282.862,344.958 281.692,345.185 281.163 C 345.412 280.633,345.779 279.885,345.999 279.500 C 346.761 278.169,347.161 277.386,348.809 274.000 C 349.719 272.130,350.631 270.330,350.835 270.000 C 351.038 269.670,351.308 269.130,351.435 268.800 C 351.561 268.470,352.010 267.460,352.432 266.556 C 352.855 265.652,353.200 264.722,353.200 264.489 C 353.200 264.256,353.455 263.555,353.766 262.932 C 355.732 259.002,358.852 249.727,360.808 242.000 C 361.059 241.010,361.503 239.300,361.795 238.200 C 364.110 229.494,366.414 210.435,366.414 200.000 C 366.414 189.565,364.110 170.506,361.795 161.800 C 361.503 160.700,361.059 158.990,360.808 158.000 C 358.852 150.273,355.732 140.998,353.766 137.068 C 353.455 136.445,353.200 135.744,353.200 135.511 C 353.200 135.093,351.838 131.961,351.150 130.800 C 350.955 130.470,350.685 129.930,350.552 129.600 C 350.287 128.947,347.388 123.033,346.777 121.900 C 346.570 121.515,346.220 120.885,345.999 120.500 C 345.779 120.115,345.412 119.367,345.185 118.837 C 344.958 118.308,344.275 117.138,343.667 116.237 C 343.059 115.337,342.435 114.330,342.278 114.000 C 342.122 113.670,341.278 112.320,340.402 111.000 C 339.525 109.680,338.631 108.195,338.414 107.700 C 338.197 107.205,337.835 106.800,337.610 106.800 C 337.384 106.800,337.200 106.558,337.200 106.262 C 337.200 105.966,336.840 105.398,336.400 105.000 C 335.960 104.602,335.600 104.116,335.600 103.921 C 335.600 103.726,335.413 103.349,335.184 103.083 C 334.955 102.817,333.678 101.160,332.345 99.400 C 331.012 97.640,329.804 96.110,329.659 96.000 C 329.515 95.890,328.323 94.450,327.011 92.800 C 323.888 88.873,311.028 76.004,307.200 72.974 C 305.550 71.668,304.020 70.407,303.800 70.171 C 302.931 69.239,297.992 65.600,297.596 65.600 C 297.364 65.600,297.071 65.330,296.945 65.000 C 296.818 64.670,296.492 64.400,296.219 64.400 C 295.947 64.400,295.398 64.040,295.000 63.600 C 294.602 63.160,294.034 62.800,293.738 62.800 C 293.442 62.800,293.200 62.630,293.200 62.422 C 293.200 62.214,292.764 61.809,292.232 61.522 C 291.167 60.948,287.320 58.598,285.657 57.506 C 285.076 57.124,284.154 56.618,283.608 56.381 C 283.063 56.144,282.523 55.823,282.408 55.667 C 282.294 55.511,281.750 55.164,281.200 54.895 C 280.650 54.626,279.885 54.225,279.500 54.003 C 278.194 53.251,277.405 52.848,274.000 51.191 C 272.130 50.281,270.330 49.369,270.000 49.165 C 269.670 48.962,269.130 48.692,268.800 48.565 C 268.470 48.439,267.460 47.990,266.556 47.568 C 265.652 47.145,264.722 46.800,264.489 46.800 C 264.256 46.800,263.555 46.545,262.932 46.234 C 260.454 44.994,252.979 42.243,250.216 41.554 C 249.344 41.336,248.444 41.010,248.216 40.830 C 247.987 40.649,246.949 40.378,245.909 40.227 C 244.869 40.077,243.920 39.795,243.800 39.600 C 243.680 39.405,242.731 39.132,241.691 38.993 C 240.651 38.854,238.990 38.498,238.000 38.201 C 235.622 37.489,232.603 36.889,228.158 36.246 C 226.154 35.956,224.325 35.601,224.092 35.457 C 223.859 35.313,221.178 35.014,218.134 34.793 C 215.090 34.571,211.250 34.220,209.600 34.013 C 206.003 33.560,193.643 33.577,190.000 34.040 M163.907 99.200 L 176.513 99.200 178.773 101.500 C 181.826 104.607,186.019 109.407,189.691 114.000 C 191.362 116.090,193.330 118.445,194.064 119.233 C 196.131 121.451,198.227 124.028,202.946 130.157 C 208.739 137.678,208.075 137.592,213.023 131.466 C 216.853 126.725,218.261 125.005,221.400 121.236 C 222.720 119.651,224.488 117.510,225.328 116.477 C 234.736 104.918,237.693 101.399,238.946 100.271 L 240.200 99.141 281.800 99.175 C 330.706 99.215,326.605 98.689,321.670 104.297 C 320.168 106.004,318.267 108.359,317.445 109.532 C 316.077 111.481,314.781 113.087,313.200 114.787 C 312.870 115.142,311.917 116.276,311.081 117.306 C 310.246 118.337,309.337 119.410,309.061 119.690 C 308.785 119.971,307.594 121.460,306.414 123.000 C 305.234 124.540,303.623 126.534,302.835 127.432 C 300.941 129.586,298.707 132.256,295.350 136.376 C 293.838 138.232,291.961 140.482,291.179 141.376 C 290.398 142.269,289.147 143.810,288.400 144.800 C 287.653 145.790,286.402 147.341,285.621 148.246 C 284.839 149.151,283.930 150.253,283.600 150.695 C 283.270 151.138,282.326 152.287,281.502 153.250 C 280.679 154.212,277.558 157.970,274.567 161.600 C 271.577 165.230,268.446 169.010,267.610 170.000 C 266.774 170.990,265.317 172.790,264.372 174.000 C 263.427 175.210,262.539 176.290,262.397 176.400 C 262.256 176.510,261.051 177.979,259.720 179.664 C 256.305 183.986,255.384 185.104,249.400 192.186 C 244.435 198.062,244.556 197.152,247.805 204.200 C 249.537 207.958,250.769 210.896,251.578 213.200 C 252.080 214.630,252.716 216.340,252.991 217.000 C 253.266 217.660,253.899 219.280,254.399 220.600 C 255.486 223.474,255.715 224.047,256.733 226.458 C 257.165 227.480,257.640 228.920,257.790 229.658 C 258.091 231.147,259.189 234.378,259.606 235.000 C 259.753 235.220,260.278 236.750,260.772 238.400 C 261.266 240.050,261.913 242.030,262.209 242.800 C 262.505 243.570,263.130 245.550,263.596 247.200 C 264.063 248.850,265.245 252.721,266.222 255.802 C 267.200 258.883,268.000 261.598,268.000 261.834 C 268.000 262.071,268.371 263.511,268.825 265.033 C 271.184 272.939,272.807 279.100,275.591 290.706 C 276.111 292.873,276.121 296.000,275.608 296.000 C 275.138 296.000,273.736 293.335,273.001 291.047 C 272.711 290.141,272.082 288.410,271.605 287.200 C 271.127 285.990,270.552 284.370,270.327 283.600 C 270.101 282.830,269.783 282.020,269.619 281.800 C 269.455 281.580,268.899 280.050,268.383 278.400 C 267.867 276.750,267.314 275.218,267.153 274.995 C 266.992 274.772,266.463 273.512,265.979 272.195 C 265.494 270.878,264.781 269.080,264.394 268.200 C 264.007 267.320,263.240 265.340,262.689 263.800 C 262.138 262.260,261.046 259.631,260.262 257.957 C 259.478 256.283,258.399 253.763,257.864 252.357 C 257.329 250.951,256.043 248.000,255.006 245.800 C 253.969 243.600,252.494 240.450,251.729 238.800 C 248.321 231.458,246.448 227.552,244.357 223.426 C 241.737 218.257,238.092 211.284,236.816 209.000 C 236.325 208.120,235.375 206.410,234.705 205.200 C 233.730 203.440,230.215 197.368,227.800 193.273 C 227.580 192.900,226.680 191.362,225.800 189.854 C 223.559 186.015,223.735 186.296,220.238 180.994 C 210.092 165.613,207.177 161.522,197.672 149.330 C 196.502 147.828,194.437 145.359,193.085 143.843 C 191.732 142.326,190.266 140.616,189.828 140.043 C 183.153 131.306,161.578 110.876,151.232 103.494 C 147.183 100.605,146.665 98.461,150.150 99.017 C 150.782 99.118,156.973 99.200,163.907 99.200 M81.516 101.209 C 82.992 101.653,85.460 102.396,87.000 102.859 C 88.540 103.322,90.391 103.948,91.114 104.250 C 91.836 104.553,92.716 104.800,93.070 104.800 C 93.423 104.800,94.452 105.142,95.356 105.560 C 96.260 105.978,98.980 107.087,101.400 108.024 C 106.137 109.859,112.221 112.684,115.331 114.493 C 116.393 115.111,118.643 116.360,120.331 117.269 C 124.640 119.590,124.744 119.651,126.878 121.100 C 127.931 121.815,128.903 122.400,129.038 122.400 C 129.174 122.400,129.941 122.909,130.742 123.531 C 131.544 124.153,133.730 125.709,135.600 126.989 C 137.470 128.268,139.090 129.424,139.200 129.558 C 139.310 129.691,141.110 131.088,143.200 132.663 C 145.290 134.238,147.450 135.911,148.000 136.380 C 148.550 136.850,150.417 138.441,152.150 139.917 C 159.268 145.981,177.298 164.540,181.966 170.608 C 182.639 171.484,183.331 172.380,183.503 172.600 C 194.822 187.092,194.389 186.501,202.105 198.000 C 208.982 208.248,210.506 210.633,212.219 213.825 C 213.038 215.351,214.044 217.078,214.454 217.662 C 214.864 218.246,215.200 218.834,215.200 218.970 C 215.200 219.105,215.677 219.972,216.260 220.895 C 216.843 221.819,218.672 225.190,220.325 228.387 C 221.977 231.584,223.750 234.871,224.265 235.692 C 224.779 236.513,225.200 237.269,225.200 237.372 C 225.200 237.476,226.820 240.899,228.800 244.978 C 230.780 249.058,232.400 252.562,232.400 252.765 C 232.400 252.969,232.665 253.645,232.989 254.268 C 233.314 254.890,233.841 256.030,234.161 256.800 C 234.481 257.570,235.385 259.599,236.171 261.309 C 236.957 263.019,237.600 264.521,237.600 264.648 C 237.600 264.775,237.862 265.446,238.181 266.140 C 238.501 266.833,239.766 270.010,240.993 273.200 C 242.219 276.390,243.393 279.360,243.601 279.800 C 244.070 280.794,245.142 283.802,245.596 285.400 C 245.783 286.060,246.402 287.860,246.970 289.400 C 247.539 290.940,248.176 292.830,248.386 293.600 C 248.596 294.370,249.215 296.258,249.760 297.795 C 251.319 302.184,251.832 302.000,238.014 302.000 C 224.248 302.000,225.259 302.526,223.009 294.200 C 222.236 291.338,216.917 274.944,216.391 273.800 C 216.188 273.360,215.020 270.390,213.795 267.200 C 212.570 264.010,210.696 259.330,209.631 256.800 C 208.566 254.270,207.274 251.150,206.760 249.867 C 205.140 245.822,205.067 245.855,198.991 253.400 C 197.928 254.720,196.943 255.890,196.802 256.000 C 196.661 256.110,195.837 257.106,194.970 258.213 C 194.104 259.320,192.645 261.120,191.728 262.213 C 189.471 264.903,182.158 273.775,180.281 276.099 C 179.446 277.134,178.540 278.210,178.269 278.490 C 177.997 278.771,176.920 280.080,175.874 281.400 C 174.829 282.720,173.062 284.880,171.948 286.200 C 170.012 288.493,165.687 293.791,162.144 298.208 C 161.234 299.343,159.993 300.662,159.388 301.138 L 158.287 302.004 116.244 301.902 L 74.200 301.800 74.081 300.966 C 73.999 300.391,75.222 298.656,78.029 295.366 C 82.866 289.699,82.776 289.807,85.780 286.000 C 87.081 284.350,89.154 281.830,90.385 280.400 C 91.616 278.970,93.691 276.450,94.996 274.800 C 96.301 273.150,97.565 271.620,97.805 271.400 C 98.045 271.180,98.945 270.100,99.807 269.000 C 101.328 267.057,102.675 265.471,104.091 263.957 C 104.471 263.551,105.307 262.493,105.950 261.606 C 106.592 260.719,108.026 258.960,109.135 257.696 C 111.029 255.540,115.232 250.370,116.985 248.042 C 117.416 247.469,118.856 245.721,120.185 244.159 C 125.319 238.119,126.031 237.270,127.295 235.685 C 128.013 234.785,129.950 232.431,131.600 230.454 C 133.250 228.476,135.680 225.468,137.000 223.768 C 138.320 222.069,140.300 219.671,141.400 218.439 C 142.500 217.208,143.839 215.570,144.376 214.800 C 144.912 214.030,146.889 211.600,148.769 209.400 C 150.649 207.200,152.322 205.220,152.487 205.000 C 152.652 204.780,153.580 203.700,154.550 202.600 C 156.296 200.619,160.721 195.203,164.330 190.630 C 165.358 189.326,166.875 187.470,167.700 186.506 C 169.690 184.179,169.647 183.946,166.426 179.569 C 161.476 172.845,159.825 170.664,158.400 168.971 C 157.630 168.056,155.560 165.535,153.800 163.369 C 147.461 155.569,134.239 141.699,127.800 136.097 C 125.160 133.800,122.460 131.433,121.800 130.838 C 119.244 128.531,108.362 120.342,103.592 117.137 C 98.935 114.007,97.580 113.174,92.800 110.502 C 91.810 109.949,90.730 109.274,90.400 109.002 C 90.070 108.731,87.640 107.479,85.000 106.220 C 82.360 104.962,79.807 103.744,79.327 103.513 C 78.847 103.282,77.866 102.488,77.148 101.747 L 75.843 100.400 77.338 100.400 C 78.160 100.400,80.040 100.764,81.516 101.209 " stroke="none" fill="#fafbfa" fill-rule="evenodd"></path><path id="path1" d="M64.800 0.400 C 64.800 0.631,63.529 0.800,61.787 0.800 C 59.479 0.800,58.721 0.940,58.545 1.400 C 58.384 1.819,57.730 2.000,56.377 2.000 C 54.990 2.000,54.334 2.188,54.069 2.662 C 53.844 3.065,53.227 3.311,52.495 3.290 C 51.832 3.271,50.933 3.589,50.496 3.997 C 50.059 4.404,49.183 4.796,48.550 4.869 C 47.893 4.944,47.443 5.214,47.500 5.500 C 47.565 5.824,47.107 6.000,46.200 6.000 C 45.222 6.000,44.800 6.181,44.800 6.600 C 44.800 7.004,44.396 7.200,43.563 7.200 C 42.673 7.200,42.268 7.419,42.122 7.978 C 41.985 8.501,41.507 8.795,40.659 8.878 C 39.912 8.950,39.441 9.203,39.500 9.500 C 39.565 9.824,39.107 10.000,38.200 10.000 C 37.275 10.000,36.800 10.188,36.800 10.553 C 36.800 10.858,36.440 11.201,36.000 11.316 C 35.560 11.431,35.200 11.812,35.200 12.163 C 35.200 12.604,34.831 12.800,34.000 12.800 C 33.200 12.800,32.800 13.000,32.800 13.400 C 32.800 13.730,32.524 14.000,32.187 14.000 C 31.851 14.000,31.471 14.270,31.345 14.600 C 31.218 14.930,30.899 15.200,30.635 15.200 C 30.372 15.200,29.469 15.830,28.628 16.600 C 27.787 17.370,26.852 18.000,26.550 18.000 C 26.247 18.000,26.000 18.251,26.000 18.557 C 26.000 18.864,25.730 19.218,25.400 19.345 C 25.070 19.471,24.800 19.851,24.800 20.187 C 24.800 20.533,24.452 20.800,24.000 20.800 C 23.556 20.800,23.200 21.067,23.200 21.400 C 23.200 21.730,22.930 22.000,22.600 22.000 C 22.270 22.000,22.000 22.270,22.000 22.600 C 22.000 22.930,21.730 23.200,21.400 23.200 C 21.067 23.200,20.800 23.556,20.800 24.000 C 20.800 24.452,20.533 24.800,20.187 24.800 C 19.851 24.800,19.471 25.070,19.345 25.400 C 19.218 25.730,18.864 26.000,18.557 26.000 C 18.251 26.000,18.000 26.247,18.000 26.550 C 18.000 26.852,17.370 27.787,16.600 28.628 C 15.830 29.469,15.200 30.372,15.200 30.635 C 15.200 30.899,14.930 31.218,14.600 31.345 C 14.270 31.471,14.000 31.851,14.000 32.187 C 14.000 32.524,13.730 32.800,13.400 32.800 C 13.005 32.800,12.800 33.195,12.800 33.953 C 12.800 34.770,12.567 35.168,12.000 35.316 C 11.560 35.431,11.200 35.812,11.200 36.163 C 11.200 36.513,10.930 36.800,10.600 36.800 C 10.181 36.800,10.000 37.222,10.000 38.200 C 10.000 39.107,9.824 39.565,9.500 39.500 C 9.203 39.441,8.950 39.912,8.878 40.659 C 8.795 41.507,8.501 41.985,7.978 42.122 C 7.419 42.268,7.200 42.673,7.200 43.563 C 7.200 44.396,7.004 44.800,6.600 44.800 C 6.181 44.800,6.000 45.222,6.000 46.200 C 6.000 47.107,5.824 47.565,5.500 47.500 C 5.214 47.443,4.944 47.893,4.869 48.550 C 4.796 49.183,4.404 50.059,3.997 50.496 C 3.589 50.933,3.271 51.832,3.290 52.495 C 3.310 53.176,3.066 53.843,2.728 54.032 C 2.348 54.245,2.105 55.059,2.059 56.271 C 2.013 57.478,1.770 58.297,1.393 58.508 C 0.952 58.755,0.800 59.601,0.800 61.820 C 0.800 63.540,0.631 64.800,0.400 64.800 C 0.134 64.800,0.000 110.133,0.000 200.000 C 0.000 289.867,0.134 335.200,0.400 335.200 C 0.631 335.200,0.800 336.460,0.800 338.180 C 0.800 340.399,0.952 341.245,1.393 341.492 C 1.770 341.703,2.013 342.522,2.059 343.729 C 2.105 344.941,2.348 345.755,2.728 345.968 C 3.066 346.157,3.310 346.824,3.290 347.505 C 3.271 348.168,3.589 349.067,3.997 349.504 C 4.404 349.941,4.796 350.817,4.869 351.450 C 4.944 352.107,5.214 352.557,5.500 352.500 C 5.824 352.435,6.000 352.893,6.000 353.800 C 6.000 354.778,6.181 355.200,6.600 355.200 C 7.004 355.200,7.200 355.604,7.200 356.437 C 7.200 357.327,7.419 357.732,7.978 357.878 C 8.501 358.015,8.795 358.493,8.878 359.341 C 8.950 360.088,9.203 360.559,9.500 360.500 C 9.824 360.435,10.000 360.893,10.000 361.800 C 10.000 362.778,10.181 363.200,10.600 363.200 C 10.930 363.200,11.200 363.487,11.200 363.837 C 11.200 364.188,11.560 364.569,12.000 364.684 C 12.567 364.832,12.800 365.230,12.800 366.047 C 12.800 366.805,13.005 367.200,13.400 367.200 C 13.730 367.200,14.000 367.476,14.000 367.813 C 14.000 368.149,14.270 368.529,14.600 368.655 C 14.930 368.782,15.200 369.101,15.200 369.365 C 15.200 369.628,15.830 370.531,16.600 371.372 C 17.370 372.213,18.000 373.148,18.000 373.450 C 18.000 373.753,18.251 374.000,18.557 374.000 C 18.864 374.000,19.218 374.270,19.345 374.600 C 19.471 374.930,19.851 375.200,20.187 375.200 C 20.533 375.200,20.800 375.548,20.800 376.000 C 20.800 376.444,21.067 376.800,21.400 376.800 C 21.730 376.800,22.000 377.070,22.000 377.400 C 22.000 377.730,22.270 378.000,22.600 378.000 C 22.930 378.000,23.200 378.270,23.200 378.600 C 23.200 378.933,23.556 379.200,24.000 379.200 C 24.452 379.200,24.800 379.467,24.800 379.813 C 24.800 380.149,25.070 380.529,25.400 380.655 C 25.730 380.782,26.000 381.136,26.000 381.443 C 26.000 381.749,26.247 382.000,26.550 382.000 C 26.852 382.000,27.787 382.630,28.628 383.400 C 29.469 384.170,30.372 384.800,30.635 384.800 C 30.899 384.800,31.218 385.070,31.345 385.400 C 31.471 385.730,31.851 386.000,32.187 386.000 C 32.524 386.000,32.800 386.270,32.800 386.600 C 32.800 387.000,33.200 387.200,34.000 387.200 C 34.831 387.200,35.200 387.396,35.200 387.837 C 35.200 388.188,35.560 388.569,36.000 388.684 C 36.440 388.799,36.800 389.142,36.800 389.447 C 36.800 389.812,37.275 390.000,38.200 390.000 C 39.107 390.000,39.565 390.176,39.500 390.500 C 39.441 390.797,39.912 391.050,40.659 391.122 C 41.507 391.205,41.985 391.499,42.122 392.022 C 42.268 392.581,42.673 392.800,43.563 392.800 C 44.396 392.800,44.800 392.996,44.800 393.400 C 44.800 393.819,45.222 394.000,46.200 394.000 C 47.107 394.000,47.565 394.176,47.500 394.500 C 47.443 394.786,47.893 395.056,48.550 395.131 C 49.183 395.204,50.059 395.596,50.496 396.003 C 50.933 396.411,51.832 396.729,52.495 396.710 C 53.227 396.689,53.844 396.935,54.069 397.338 C 54.334 397.812,54.990 398.000,56.377 398.000 C 57.730 398.000,58.384 398.181,58.545 398.600 C 58.721 399.060,59.479 399.200,61.787 399.200 C 63.529 399.200,64.800 399.369,64.800 399.600 C 64.800 399.866,110.133 400.000,200.000 400.000 C 289.867 400.000,335.200 399.866,335.200 399.600 C 335.200 399.369,336.471 399.200,338.213 399.200 C 340.521 399.200,341.279 399.060,341.455 398.600 C 341.616 398.181,342.270 398.000,343.623 398.000 C 345.010 398.000,345.666 397.812,345.931 397.338 C 346.156 396.935,346.773 396.689,347.505 396.710 C 348.168 396.729,349.067 396.411,349.504 396.003 C 349.941 395.596,350.817 395.204,351.450 395.131 C 352.107 395.056,352.557 394.786,352.500 394.500 C 352.435 394.176,352.893 394.000,353.800 394.000 C 354.778 394.000,355.200 393.819,355.200 393.400 C 355.200 392.996,355.604 392.800,356.437 392.800 C 357.327 392.800,357.732 392.581,357.878 392.022 C 358.015 391.499,358.493 391.205,359.341 391.122 C 360.088 391.050,360.559 390.797,360.500 390.500 C 360.435 390.176,360.893 390.000,361.800 390.000 C 362.725 390.000,363.200 389.812,363.200 389.447 C 363.200 389.142,363.560 388.799,364.000 388.684 C 364.440 388.569,364.800 388.188,364.800 387.837 C 364.800 387.396,365.169 387.200,366.000 387.200 C 366.800 387.200,367.200 387.000,367.200 386.600 C 367.200 386.270,367.476 386.000,367.813 386.000 C 368.149 386.000,368.529 385.730,368.655 385.400 C 368.782 385.070,369.101 384.800,369.365 384.800 C 369.628 384.800,370.531 384.170,371.372 383.400 C 372.213 382.630,373.148 382.000,373.450 382.000 C 373.753 382.000,374.000 381.749,374.000 381.443 C 374.000 381.136,374.270 380.782,374.600 380.655 C 374.930 380.529,375.200 380.149,375.200 379.813 C 375.200 379.467,375.548 379.200,376.000 379.200 C 376.444 379.200,376.800 378.933,376.800 378.600 C 376.800 378.270,377.070 378.000,377.400 378.000 C 377.730 378.000,378.000 377.730,378.000 377.400 C 378.000 377.070,378.270 376.800,378.600 376.800 C 378.933 376.800,379.200 376.444,379.200 376.000 C 379.200 375.548,379.467 375.200,379.813 375.200 C 380.149 375.200,380.529 374.930,380.655 374.600 C 380.782 374.270,381.136 374.000,381.443 374.000 C 381.749 374.000,382.000 373.753,382.000 373.450 C 382.000 373.148,382.630 372.213,383.400 371.372 C 384.170 370.531,384.800 369.628,384.800 369.365 C 384.800 369.101,385.070 368.782,385.400 368.655 C 385.730 368.529,386.000 368.149,386.000 367.813 C 386.000 367.476,386.270 367.200,386.600 367.200 C 386.995 367.200,387.200 366.805,387.200 366.047 C 387.200 365.230,387.433 364.832,388.000 364.684 C 388.440 364.569,388.800 364.188,388.800 363.837 C 388.800 363.487,389.070 363.200,389.400 363.200 C 389.819 363.200,390.000 362.778,390.000 361.800 C 390.000 360.893,390.176 360.435,390.500 360.500 C 390.797 360.559,391.050 360.088,391.122 359.341 C 391.205 358.493,391.499 358.015,392.022 357.878 C 392.581 357.732,392.800 357.327,392.800 356.437 C 392.800 355.604,392.996 355.200,393.400 355.200 C 393.819 355.200,394.000 354.778,394.000 353.800 C 394.000 352.893,394.176 352.435,394.500 352.500 C 394.786 352.557,395.056 352.107,395.131 351.450 C 395.204 350.817,395.596 349.941,396.003 349.504 C 396.411 349.067,396.729 348.168,396.710 347.505 C 396.690 346.824,396.934 346.157,397.272 345.968 C 397.652 345.755,397.895 344.941,397.941 343.729 C 397.987 342.522,398.230 341.703,398.607 341.492 C 399.048 341.245,399.200 340.399,399.200 338.180 C 399.200 336.460,399.369 335.200,399.600 335.200 C 399.866 335.200,400.000 289.867,400.000 200.000 C 400.000 110.133,399.866 64.800,399.600 64.800 C 399.369 64.800,399.200 63.540,399.200 61.820 C 399.200 59.601,399.048 58.755,398.607 58.508 C 398.230 58.297,397.987 57.478,397.941 56.271 C 397.895 55.059,397.652 54.245,397.272 54.032 C 396.934 53.843,396.690 53.176,396.710 52.495 C 396.729 51.832,396.411 50.933,396.003 50.496 C 395.596 50.059,395.204 49.183,395.131 48.550 C 395.056 47.893,394.786 47.443,394.500 47.500 C 394.176 47.565,394.000 47.107,394.000 46.200 C 394.000 45.222,393.819 44.800,393.400 44.800 C 392.996 44.800,392.800 44.396,392.800 43.563 C 392.800 42.673,392.581 42.268,392.022 42.122 C 391.499 41.985,391.205 41.507,391.122 40.659 C 391.050 39.912,390.797 39.441,390.500 39.500 C 390.176 39.565,390.000 39.107,390.000 38.200 C 390.000 37.275,389.812 36.800,389.447 36.800 C 389.142 36.800,388.799 36.440,388.684 36.000 C 388.569 35.560,388.188 35.200,387.837 35.200 C 387.396 35.200,387.200 34.831,387.200 34.000 C 387.200 33.200,387.000 32.800,386.600 32.800 C 386.270 32.800,386.000 32.524,386.000 32.187 C 386.000 31.851,385.730 31.471,385.400 31.345 C 385.070 31.218,384.800 30.899,384.800 30.635 C 384.800 30.372,384.170 29.469,383.400 28.628 C 382.630 27.787,382.000 26.852,382.000 26.550 C 382.000 26.247,381.749 26.000,381.443 26.000 C 381.136 26.000,380.782 25.730,380.655 25.400 C 380.529 25.070,380.149 24.800,379.813 24.800 C 379.467 24.800,379.200 24.452,379.200 24.000 C 379.200 23.556,378.933 23.200,378.600 23.200 C 378.270 23.200,378.000 22.930,378.000 22.600 C 378.000 22.270,377.730 22.000,377.400 22.000 C 377.070 22.000,376.800 21.730,376.800 21.400 C 376.800 21.067,376.444 20.800,376.000 20.800 C 375.548 20.800,375.200 20.533,375.200 20.187 C 375.200 19.851,374.930 19.471,374.600 19.345 C 374.270 19.218,374.000 18.864,374.000 18.557 C 374.000 18.251,373.753 18.000,373.450 18.000 C 373.148 18.000,372.213 17.370,371.372 16.600 C 370.531 15.830,369.628 15.200,369.365 15.200 C 369.101 15.200,368.782 14.930,368.655 14.600 C 368.529 14.270,368.149 14.000,367.813 14.000 C 367.476 14.000,367.200 13.730,367.200 13.400 C 367.200 13.005,366.805 12.800,366.047 12.800 C 365.230 12.800,364.832 12.567,364.684 12.000 C 364.569 11.560,364.188 11.200,363.837 11.200 C 363.487 11.200,363.200 10.930,363.200 10.600 C 363.200 10.181,362.778 10.000,361.800 10.000 C 360.893 10.000,360.435 9.824,360.500 9.500 C 360.559 9.203,360.088 8.950,359.341 8.878 C 358.493 8.795,358.015 8.501,357.878 7.978 C 357.732 7.419,357.327 7.200,356.437 7.200 C 355.604 7.200,355.200 7.004,355.200 6.600 C 355.200 6.181,354.778 6.000,353.800 6.000 C 352.893 6.000,352.435 5.824,352.500 5.500 C 352.557 5.214,352.107 4.944,351.450 4.869 C 350.817 4.796,349.941 4.404,349.504 3.997 C 349.067 3.589,348.168 3.271,347.505 3.290 C 346.773 3.311,346.156 3.065,345.931 2.662 C 345.666 2.188,345.010 2.000,343.623 2.000 C 342.270 2.000,341.616 1.819,341.455 1.400 C 341.279 0.940,340.521 0.800,338.213 0.800 C 336.471 0.800,335.200 0.631,335.200 0.400 C 335.200 0.134,289.867 0.000,200.000 0.000 C 110.133 0.000,64.800 0.134,64.800 0.400 M217.753 33.572 C 218.387 33.819,220.835 34.175,223.195 34.365 C 225.554 34.555,227.858 34.910,228.316 35.155 C 228.773 35.400,229.958 35.600,230.948 35.600 C 231.938 35.600,233.255 35.804,233.874 36.054 C 234.493 36.303,236.170 36.742,237.600 37.029 C 240.670 37.644,243.336 38.308,245.000 38.871 C 245.660 39.094,246.956 39.432,247.880 39.623 C 248.804 39.813,249.884 40.142,250.280 40.354 C 251.087 40.787,254.297 41.864,256.349 42.391 C 257.091 42.582,257.892 42.932,258.129 43.169 C 258.366 43.406,258.940 43.600,259.404 43.600 C 259.867 43.600,260.596 43.864,261.024 44.187 C 261.451 44.510,262.050 44.780,262.356 44.787 C 262.662 44.794,263.652 45.145,264.556 45.568 C 265.460 45.990,266.470 46.439,266.800 46.565 C 267.130 46.692,267.670 46.950,268.000 47.139 C 268.722 47.553,271.019 48.623,272.400 49.188 C 272.950 49.414,273.670 49.766,274.000 49.970 C 274.330 50.175,274.870 50.444,275.200 50.569 C 275.530 50.693,276.115 50.976,276.500 51.197 C 277.644 51.855,278.472 52.298,281.000 53.600 C 283.734 55.009,284.227 55.302,286.876 57.100 C 287.930 57.815,288.879 58.400,288.986 58.400 C 289.373 58.400,300.638 66.170,301.681 67.156 C 302.502 67.933,302.928 68.274,305.000 69.812 C 305.880 70.465,306.801 71.180,307.046 71.400 C 307.292 71.620,308.719 72.880,310.218 74.200 C 313.880 77.426,322.831 86.365,325.800 89.761 C 327.120 91.272,328.380 92.708,328.600 92.954 C 328.820 93.199,329.530 94.120,330.178 95.000 C 330.826 95.880,331.591 96.744,331.878 96.920 C 332.165 97.096,332.400 97.501,332.400 97.820 C 332.400 98.139,332.555 98.400,332.744 98.400 C 332.934 98.400,333.866 99.525,334.817 100.900 C 338.898 106.804,341.600 110.833,341.600 111.014 C 341.600 111.121,342.185 112.070,342.900 113.124 C 344.698 115.773,344.991 116.266,346.400 119.000 C 347.080 120.320,347.795 121.670,347.989 122.000 C 348.184 122.330,348.444 122.870,348.569 123.200 C 348.693 123.530,348.976 124.115,349.197 124.500 C 349.419 124.885,349.780 125.515,350.001 125.900 C 350.221 126.285,350.586 127.050,350.812 127.600 C 351.037 128.150,351.475 129.140,351.785 129.800 C 352.095 130.460,352.449 131.270,352.572 131.600 C 352.695 131.930,352.955 132.470,353.150 132.800 C 353.909 134.082,355.201 137.115,355.213 137.644 C 355.220 137.950,355.490 138.549,355.813 138.976 C 356.136 139.404,356.400 140.133,356.400 140.596 C 356.400 141.060,356.594 141.634,356.831 141.871 C 357.068 142.108,357.418 142.909,357.609 143.651 C 358.096 145.551,359.185 148.772,359.843 150.260 C 360.149 150.954,360.406 152.034,360.413 152.660 C 360.420 153.287,360.690 154.149,361.013 154.576 C 361.336 155.004,361.600 155.864,361.600 156.489 C 361.600 157.114,361.849 158.222,362.154 158.952 C 362.459 159.681,362.839 161.233,363.000 162.400 C 363.161 163.567,363.541 165.119,363.846 165.848 C 364.151 166.578,364.400 167.968,364.400 168.938 C 364.400 169.909,364.670 171.349,365.000 172.138 C 365.334 172.939,365.600 174.782,365.600 176.303 C 365.600 177.804,365.904 180.105,366.275 181.416 C 367.283 184.981,367.283 215.019,366.275 218.584 C 365.904 219.895,365.600 222.196,365.600 223.697 C 365.600 225.218,365.334 227.061,365.000 227.862 C 364.670 228.651,364.400 230.091,364.400 231.062 C 364.400 232.032,364.151 233.422,363.846 234.152 C 363.541 234.881,363.161 236.433,363.000 237.600 C 362.839 238.767,362.459 240.319,362.154 241.048 C 361.849 241.778,361.600 242.886,361.600 243.511 C 361.600 244.136,361.336 244.996,361.013 245.424 C 360.690 245.851,360.419 246.740,360.410 247.400 C 360.402 248.060,360.152 249.067,359.854 249.637 C 359.556 250.208,359.182 251.368,359.023 252.217 C 358.864 253.065,358.479 254.123,358.167 254.569 C 357.855 255.014,357.600 255.754,357.600 256.213 C 357.600 256.672,357.336 257.396,357.013 257.824 C 356.690 258.251,356.420 258.971,356.413 259.424 C 356.406 259.876,356.136 260.596,355.813 261.024 C 355.490 261.451,355.220 262.050,355.213 262.356 C 355.206 262.662,354.855 263.652,354.432 264.556 C 354.010 265.460,353.561 266.470,353.435 266.800 C 353.308 267.130,353.050 267.670,352.861 268.000 C 352.447 268.722,351.377 271.019,350.812 272.400 C 350.586 272.950,350.234 273.670,350.030 274.000 C 349.825 274.330,349.556 274.870,349.431 275.200 C 349.307 275.530,349.052 276.070,348.866 276.400 C 347.987 277.953,347.548 278.771,346.400 281.000 C 344.991 283.734,344.698 284.227,342.900 286.876 C 342.185 287.930,341.600 288.879,341.600 288.986 C 341.600 289.167,338.898 293.196,334.817 299.100 C 333.866 300.475,332.934 301.600,332.744 301.600 C 332.555 301.600,332.400 301.861,332.400 302.180 C 332.400 302.499,332.165 302.904,331.878 303.080 C 331.591 303.256,330.826 304.120,330.178 305.000 C 329.530 305.880,328.820 306.801,328.600 307.046 C 328.380 307.292,327.120 308.731,325.800 310.243 C 322.709 313.786,313.786 322.709,310.243 325.800 C 308.731 327.120,307.292 328.380,307.046 328.600 C 306.801 328.820,305.880 329.530,305.000 330.178 C 304.120 330.826,303.256 331.591,303.080 331.878 C 302.904 332.165,302.499 332.400,302.180 332.400 C 301.861 332.400,301.600 332.555,301.600 332.744 C 301.600 332.934,300.475 333.866,299.100 334.817 C 293.196 338.898,289.167 341.600,288.986 341.600 C 288.879 341.600,287.930 342.185,286.876 342.900 C 284.227 344.698,283.734 344.991,281.000 346.400 C 279.680 347.080,278.330 347.795,278.000 347.989 C 277.670 348.184,277.130 348.444,276.800 348.569 C 276.470 348.693,275.885 348.976,275.500 349.197 C 275.115 349.419,274.485 349.780,274.100 350.001 C 273.715 350.221,272.950 350.586,272.400 350.812 C 271.850 351.037,270.860 351.475,270.200 351.785 C 269.540 352.095,268.730 352.449,268.400 352.572 C 268.070 352.695,267.530 352.955,267.200 353.150 C 265.918 353.909,262.885 355.201,262.356 355.213 C 262.050 355.220,261.451 355.490,261.024 355.813 C 260.596 356.136,259.867 356.400,259.404 356.400 C 258.940 356.400,258.366 356.594,258.129 356.831 C 257.892 357.068,257.091 357.418,256.349 357.609 C 254.297 358.136,251.087 359.213,250.280 359.646 C 249.884 359.858,248.804 360.187,247.880 360.377 C 246.956 360.568,245.660 360.906,245.000 361.129 C 243.336 361.692,240.670 362.356,237.600 362.971 C 236.170 363.258,234.493 363.697,233.874 363.946 C 233.255 364.196,231.972 364.400,231.023 364.400 C 230.074 364.400,228.651 364.670,227.862 365.000 C 227.072 365.330,225.295 365.603,223.913 365.606 C 222.531 365.609,220.230 365.912,218.800 366.279 C 214.902 367.279,184.954 367.276,181.416 366.275 C 180.105 365.904,177.804 365.600,176.303 365.600 C 174.782 365.600,172.939 365.334,172.138 365.000 C 171.349 364.670,169.926 364.400,168.977 364.400 C 168.028 364.400,166.745 364.196,166.126 363.946 C 165.507 363.697,163.830 363.258,162.400 362.971 C 159.330 362.356,156.664 361.692,155.000 361.129 C 154.340 360.906,153.044 360.568,152.120 360.377 C 151.196 360.187,150.116 359.858,149.720 359.646 C 148.913 359.213,145.703 358.136,143.651 357.609 C 142.909 357.418,142.108 357.068,141.871 356.831 C 141.634 356.594,141.060 356.400,140.596 356.400 C 140.133 356.400,139.404 356.136,138.976 355.813 C 138.549 355.490,137.950 355.220,137.644 355.213 C 137.338 355.206,136.348 354.855,135.444 354.432 C 134.540 354.010,133.530 353.561,133.200 353.435 C 132.870 353.308,132.330 353.050,132.000 352.861 C 131.278 352.447,128.981 351.377,127.600 350.812 C 127.050 350.586,126.330 350.234,126.000 350.030 C 125.670 349.825,125.130 349.556,124.800 349.431 C 124.470 349.307,123.885 349.024,123.500 348.803 C 122.356 348.145,121.528 347.702,119.000 346.400 C 116.266 344.991,115.773 344.698,113.124 342.900 C 112.070 342.185,111.121 341.600,111.014 341.600 C 110.627 341.600,99.362 333.830,98.319 332.844 C 97.498 332.067,97.072 331.726,95.000 330.188 C 94.120 329.535,93.199 328.820,92.954 328.600 C 92.708 328.380,91.269 327.120,89.757 325.800 C 86.214 322.709,77.291 313.786,74.200 310.243 C 72.880 308.731,71.620 307.292,71.400 307.046 C 71.180 306.801,70.470 305.880,69.822 305.000 C 69.174 304.120,68.409 303.256,68.122 303.080 C 67.835 302.904,67.600 302.499,67.600 302.180 C 67.600 301.861,67.445 301.600,67.256 301.600 C 67.066 301.600,66.134 300.475,65.183 299.100 C 61.102 293.196,58.400 289.167,58.400 288.986 C 58.400 288.879,57.815 287.930,57.100 286.876 C 55.302 284.227,55.009 283.734,53.600 281.000 C 52.920 279.680,52.205 278.330,52.011 278.000 C 51.816 277.670,51.556 277.130,51.431 276.800 C 51.307 276.470,50.996 275.840,50.739 275.400 C 49.593 273.431,49.154 272.555,48.635 271.200 C 48.509 270.870,48.244 270.330,48.047 270.000 C 47.849 269.670,47.418 268.770,47.087 268.000 C 46.757 267.230,46.107 265.770,45.643 264.756 C 45.179 263.742,44.794 262.662,44.787 262.356 C 44.780 262.050,44.510 261.451,44.187 261.024 C 43.864 260.596,43.600 259.867,43.600 259.404 C 43.600 258.940,43.406 258.366,43.169 258.129 C 42.932 257.892,42.582 257.091,42.391 256.349 C 41.904 254.449,40.815 251.228,40.157 249.740 C 39.851 249.046,39.594 247.966,39.587 247.340 C 39.580 246.713,39.310 245.851,38.987 245.424 C 38.664 244.996,38.400 244.136,38.400 243.511 C 38.400 242.886,38.151 241.778,37.846 241.048 C 37.541 240.319,37.161 238.767,37.000 237.600 C 36.839 236.433,36.459 234.881,36.154 234.152 C 35.849 233.422,35.597 232.055,35.594 231.113 C 35.591 230.171,35.329 228.680,35.012 227.800 C 34.695 226.920,34.427 225.023,34.418 223.584 C 34.408 222.145,34.096 219.895,33.725 218.584 C 32.717 215.019,32.717 184.981,33.725 181.416 C 34.096 180.105,34.408 177.855,34.418 176.416 C 34.427 174.977,34.695 173.080,35.012 172.200 C 35.329 171.320,35.591 169.829,35.594 168.887 C 35.597 167.945,35.849 166.578,36.154 165.848 C 36.459 165.119,36.839 163.567,37.000 162.400 C 37.161 161.233,37.541 159.681,37.846 158.952 C 38.151 158.222,38.400 157.114,38.400 156.489 C 38.400 155.864,38.664 155.004,38.987 154.576 C 39.310 154.149,39.580 153.287,39.587 152.660 C 39.594 152.034,39.851 150.954,40.157 150.260 C 40.815 148.772,41.904 145.551,42.391 143.651 C 42.582 142.909,42.932 142.108,43.169 141.871 C 43.406 141.634,43.600 141.060,43.600 140.596 C 43.600 140.133,43.864 139.404,44.187 138.976 C 44.510 138.549,44.780 137.950,44.787 137.644 C 44.794 137.338,45.179 136.258,45.643 135.244 C 46.558 133.243,47.386 131.348,47.759 130.400 C 47.889 130.070,48.157 129.530,48.355 129.200 C 48.553 128.870,48.912 128.150,49.154 127.600 C 49.396 127.050,49.763 126.330,49.968 126.000 C 50.174 125.670,50.444 125.130,50.569 124.800 C 50.693 124.470,50.976 123.885,51.197 123.500 C 51.855 122.356,52.298 121.528,53.600 119.000 C 55.009 116.266,55.302 115.773,57.100 113.124 C 57.815 112.070,58.400 111.121,58.400 111.014 C 58.400 110.827,61.558 106.137,65.210 100.900 C 66.168 99.525,67.098 98.400,67.276 98.400 C 67.454 98.400,67.600 98.139,67.600 97.820 C 67.600 97.501,67.835 97.096,68.122 96.920 C 68.409 96.744,69.174 95.880,69.822 95.000 C 70.470 94.120,71.180 93.199,71.400 92.954 C 71.620 92.708,72.880 91.272,74.200 89.761 C 77.169 86.365,86.120 77.426,89.782 74.200 C 91.281 72.880,92.708 71.620,92.954 71.400 C 93.199 71.180,94.120 70.465,95.000 69.812 C 97.072 68.274,97.498 67.933,98.319 67.156 C 99.362 66.170,110.627 58.400,111.014 58.400 C 111.121 58.400,112.070 57.815,113.124 57.100 C 115.773 55.302,116.266 55.009,119.000 53.600 C 121.528 52.298,122.356 51.855,123.500 51.197 C 123.885 50.976,124.470 50.693,124.800 50.569 C 125.130 50.444,125.670 50.175,126.000 49.970 C 126.330 49.766,127.050 49.414,127.600 49.188 C 128.150 48.963,129.140 48.525,129.800 48.215 C 130.460 47.905,131.270 47.551,131.600 47.428 C 131.930 47.305,132.470 47.045,132.800 46.850 C 134.082 46.091,137.115 44.799,137.644 44.787 C 137.950 44.780,138.549 44.510,138.976 44.187 C 139.404 43.864,140.133 43.600,140.596 43.600 C 141.060 43.600,141.634 43.406,141.871 43.169 C 142.108 42.932,142.909 42.582,143.651 42.391 C 145.703 41.864,148.913 40.787,149.720 40.354 C 150.116 40.142,151.196 39.813,152.120 39.623 C 153.044 39.432,154.340 39.094,155.000 38.871 C 156.664 38.308,159.330 37.644,162.400 37.029 C 163.830 36.742,165.507 36.303,166.126 36.054 C 166.745 35.804,168.005 35.597,168.926 35.594 C 169.847 35.591,171.320 35.329,172.200 35.012 C 173.080 34.695,174.970 34.423,176.400 34.408 C 177.830 34.393,179.720 34.186,180.600 33.947 C 184.731 32.828,215.050 32.522,217.753 33.572 M168.600 100.809 L 162.200 101.049 169.093 101.075 C 172.943 101.089,175.890 100.946,175.769 100.750 C 175.650 100.558,175.428 100.438,175.276 100.485 C 175.124 100.532,172.120 100.678,168.600 100.809 M241.542 100.902 C 241.708 101.068,259.744 101.158,281.622 101.102 L 321.400 101.000 281.320 100.800 C 259.276 100.690,241.376 100.736,241.542 100.902 M154.531 101.271 C 156.021 101.511,157.247 101.505,157.931 101.255 C 158.769 100.948,158.265 100.867,155.600 100.880 L 152.200 100.897 154.531 101.271 M176.400 101.346 C 176.400 101.456,176.940 101.930,177.600 102.400 C 178.260 102.870,178.800 103.164,178.800 103.054 C 178.800 102.944,178.260 102.470,177.600 102.000 C 176.940 101.530,176.400 101.236,176.400 101.346 M87.000 105.630 C 88.320 106.303,89.940 107.202,90.600 107.627 C 91.260 108.053,92.430 108.689,93.200 109.040 C 93.970 109.391,95.140 110.079,95.800 110.569 C 96.460 111.058,97.329 111.580,97.732 111.729 C 98.699 112.086,102.963 114.899,103.133 115.292 C 103.207 115.461,103.434 115.600,103.637 115.600 C 104.071 115.600,107.478 117.926,109.867 119.855 C 110.784 120.595,111.729 121.200,111.967 121.200 C 112.205 121.200,112.400 121.341,112.400 121.514 C 112.400 121.686,112.895 122.127,113.500 122.494 C 114.468 123.080,115.413 123.819,117.588 125.690 C 117.911 125.968,119.081 126.904,120.188 127.771 C 124.293 130.984,133.901 139.623,137.000 142.887 C 143.540 149.775,148.708 155.391,151.800 158.971 C 152.900 160.244,154.160 161.681,154.600 162.164 C 155.040 162.647,155.850 163.638,156.400 164.366 C 156.950 165.095,158.529 167.065,159.910 168.745 C 161.290 170.425,162.904 172.520,163.496 173.400 C 164.088 174.280,165.434 176.106,166.486 177.457 C 167.539 178.808,168.400 180.012,168.400 180.132 C 168.400 180.252,168.940 180.942,169.600 181.664 C 171.097 183.303,171.126 184.664,169.700 186.227 C 169.095 186.890,167.623 188.685,166.430 190.216 C 165.236 191.747,164.064 193.180,163.825 193.400 C 163.586 193.620,162.043 195.509,160.395 197.598 C 158.748 199.687,156.950 201.849,156.400 202.402 C 155.850 202.956,154.883 204.037,154.251 204.804 C 153.085 206.221,151.351 208.284,148.475 211.676 C 147.600 212.707,146.018 214.687,144.959 216.076 C 143.901 217.464,142.550 219.140,141.957 219.800 C 141.042 220.819,136.656 226.146,135.699 227.400 C 135.531 227.620,135.089 228.276,134.716 228.857 C 134.343 229.439,133.390 230.609,132.599 231.457 C 131.808 232.306,130.314 234.057,129.280 235.350 C 125.384 240.220,122.674 243.457,121.037 245.200 C 120.106 246.190,117.746 249.070,115.790 251.600 C 113.835 254.130,111.052 257.550,109.606 259.200 C 108.160 260.850,106.455 262.905,105.816 263.768 C 105.178 264.630,103.923 266.180,103.028 267.212 C 100.082 270.606,99.110 271.767,96.844 274.600 C 95.612 276.140,93.252 279.020,91.601 281.000 C 89.949 282.980,87.518 285.950,86.199 287.600 C 84.879 289.250,83.620 290.807,83.400 291.060 C 83.180 291.312,82.460 292.205,81.800 293.043 C 80.181 295.098,77.071 298.568,76.700 298.733 C 73.441 300.182,95.305 300.529,150.227 299.901 L 159.054 299.800 160.121 298.600 C 161.394 297.168,161.206 297.398,164.371 293.400 C 165.765 291.640,167.020 290.110,167.162 290.000 C 167.303 289.890,168.399 288.540,169.597 287.000 C 170.795 285.460,172.536 283.390,173.465 282.400 C 174.394 281.410,175.659 279.865,176.277 278.967 C 176.895 278.069,179.020 275.391,181.000 273.015 C 187.479 265.242,189.652 262.626,191.137 260.810 C 191.942 259.826,193.330 258.206,194.222 257.210 C 195.113 256.215,196.461 254.590,197.215 253.600 C 197.970 252.610,198.780 251.620,199.014 251.400 C 199.913 250.557,202.400 247.248,202.400 246.895 C 202.400 246.192,203.865 245.200,204.902 245.200 C 206.180 245.200,207.428 246.686,208.056 248.954 C 208.306 249.859,208.862 251.410,209.292 252.400 C 210.614 255.450,210.715 255.690,212.318 259.600 C 213.175 261.690,214.111 264.030,214.398 264.800 C 214.685 265.570,215.155 266.740,215.442 267.400 C 216.146 269.017,216.962 271.292,218.885 277.000 C 219.774 279.640,220.627 282.070,220.781 282.400 C 220.934 282.730,221.552 284.620,222.153 286.600 C 222.754 288.580,223.403 290.493,223.595 290.851 C 223.788 291.209,224.076 292.199,224.235 293.051 C 224.395 293.903,224.767 295.179,225.063 295.887 C 225.358 296.595,225.600 297.573,225.600 298.061 C 225.600 299.635,227.064 300.783,228.532 300.362 C 230.126 299.905,245.301 299.903,247.266 300.360 C 249.057 300.776,249.559 299.779,248.548 297.812 C 248.205 297.145,247.416 295.070,246.793 293.200 C 245.330 288.803,242.018 279.655,240.059 274.600 C 239.804 273.940,239.347 272.950,239.043 272.400 C 238.740 271.850,238.368 270.817,238.215 270.105 C 238.063 269.392,237.772 268.706,237.569 268.581 C 237.366 268.455,237.200 268.068,237.200 267.720 C 237.200 267.372,236.854 266.348,236.432 265.444 C 235.691 263.859,234.866 261.981,233.424 258.600 C 233.048 257.720,232.502 256.460,232.210 255.800 C 231.919 255.140,231.408 253.970,231.076 253.200 C 230.049 250.817,227.576 245.582,225.543 241.486 C 224.474 239.333,223.600 237.308,223.600 236.986 C 223.600 236.664,223.458 236.400,223.284 236.400 C 223.110 236.400,222.103 234.735,221.046 232.700 C 219.440 229.608,216.144 223.415,214.394 220.200 C 214.155 219.760,213.526 218.680,212.997 217.800 C 212.468 216.920,211.568 215.300,210.996 214.200 C 210.424 213.100,209.255 211.120,208.397 209.800 C 207.539 208.480,206.294 206.486,205.629 205.370 C 204.965 204.253,204.011 202.891,203.511 202.343 C 203.010 201.795,202.159 200.549,201.620 199.573 C 201.081 198.598,200.490 197.620,200.308 197.400 C 199.920 196.932,197.228 193.216,196.498 192.140 C 194.439 189.103,190.249 183.326,189.868 182.995 C 189.132 182.359,187.600 180.076,187.600 179.616 C 187.600 179.387,187.465 179.199,187.300 179.197 C 187.135 179.196,185.740 177.550,184.200 175.541 C 182.660 173.531,181.040 171.483,180.600 170.990 C 180.160 170.496,178.630 168.707,177.200 167.014 C 175.770 165.321,173.340 162.630,171.800 161.033 C 162.575 151.466,157.984 146.822,156.351 145.405 C 155.334 144.522,153.368 142.810,151.983 141.600 C 150.597 140.390,148.459 138.617,147.231 137.660 C 146.004 136.704,144.910 135.795,144.800 135.641 C 144.690 135.487,143.970 134.933,143.200 134.410 C 142.430 133.886,141.494 133.175,141.119 132.829 C 139.823 131.632,139.808 131.620,133.100 126.932 C 131.945 126.125,130.550 125.153,130.000 124.773 C 128.319 123.610,123.437 120.552,122.800 120.264 C 122.470 120.114,120.850 119.254,119.200 118.352 C 114.505 115.785,104.557 110.800,104.131 110.800 C 103.919 110.800,102.715 110.272,101.454 109.628 C 100.193 108.983,98.638 108.340,97.998 108.200 C 97.358 108.059,96.152 107.614,95.317 107.212 C 94.483 106.809,92.768 106.180,91.507 105.813 C 90.246 105.447,89.111 104.979,88.984 104.774 C 88.857 104.568,87.818 104.402,86.676 104.404 L 84.600 104.407 87.000 105.630 M203.200 151.200 C 203.200 151.420,203.470 151.600,203.800 151.600 C 204.130 151.600,204.400 151.870,204.400 152.200 C 204.400 152.536,204.757 152.800,205.209 152.800 C 205.980 152.800,205.988 152.753,205.363 151.800 C 204.724 150.825,203.200 150.402,203.200 151.200 " stroke="none" fill="#0a8320" fill-rule="evenodd"></path><path id="path2" d="M150.886 101.159 C 151.454 101.970,152.385 102.741,154.798 104.400 C 155.278 104.730,156.068 105.360,156.554 105.800 C 157.039 106.240,158.373 107.312,159.518 108.182 C 160.663 109.052,161.600 109.907,161.600 110.082 C 161.600 110.257,161.777 110.400,161.993 110.400 C 162.209 110.400,162.995 110.985,163.740 111.700 C 164.485 112.415,167.052 114.800,169.445 117.000 C 175.353 122.433,185.795 133.106,189.000 136.989 C 191.420 139.920,193.888 142.785,195.842 144.931 C 196.809 145.992,197.600 147.027,197.600 147.231 C 197.600 147.434,197.775 147.600,197.990 147.600 C 198.204 147.600,198.638 148.095,198.954 148.700 C 199.269 149.305,200.263 150.610,201.161 151.600 C 202.059 152.590,202.897 153.715,203.024 154.100 C 203.150 154.485,203.410 154.800,203.600 154.800 C 203.790 154.800,204.047 155.120,204.171 155.510 C 204.295 155.901,204.995 156.846,205.726 157.610 C 207.160 159.109,209.596 162.537,209.607 163.072 C 209.611 163.252,210.047 163.811,210.576 164.312 C 211.105 164.814,212.029 166.074,212.629 167.112 C 213.229 168.151,213.973 169.270,214.284 169.600 C 214.594 169.930,215.467 171.145,216.224 172.300 C 216.981 173.455,218.230 175.341,219.000 176.491 C 219.770 177.641,220.400 178.811,220.400 179.091 C 220.400 179.371,220.575 179.600,220.789 179.600 C 221.144 179.600,223.140 182.771,226.163 188.136 C 226.803 189.271,228.076 191.370,228.993 192.800 C 231.061 196.026,236.400 205.085,236.400 205.368 C 236.400 205.483,237.211 206.948,238.201 208.624 C 239.192 210.299,240.112 212.106,240.245 212.639 C 240.379 213.172,240.619 213.688,240.779 213.787 C 240.938 213.886,242.491 216.809,244.229 220.283 C 245.967 223.757,247.494 226.690,247.622 226.800 C 247.956 227.086,249.598 230.580,249.609 231.026 C 249.614 231.232,249.970 231.850,250.400 232.400 C 250.830 232.950,251.186 233.693,251.191 234.051 C 251.196 234.409,251.470 234.926,251.800 235.200 C 252.130 235.474,252.404 235.991,252.408 236.349 C 252.413 236.707,253.313 238.799,254.408 240.998 C 255.504 243.197,256.400 245.196,256.400 245.441 C 256.400 245.686,257.030 247.095,257.800 248.572 C 258.570 250.049,259.200 251.500,259.200 251.797 C 259.200 252.093,259.459 252.845,259.775 253.468 C 261.134 256.147,262.801 259.844,262.814 260.207 C 262.821 260.423,263.175 261.320,263.600 262.200 C 264.025 263.080,264.379 264.008,264.386 264.263 C 264.394 264.517,264.940 265.929,265.600 267.400 C 266.260 268.871,266.800 270.328,266.800 270.639 C 266.800 270.949,267.160 271.875,267.600 272.696 C 268.040 273.516,268.400 274.395,268.400 274.648 C 268.400 274.901,268.669 275.624,268.998 276.254 C 269.326 276.884,269.596 277.765,269.598 278.211 C 269.599 278.657,269.855 279.386,270.167 279.831 C 270.479 280.277,270.859 281.307,271.011 282.120 C 271.164 282.934,271.431 283.600,271.605 283.600 C 271.778 283.600,272.100 284.275,272.319 285.100 L 272.717 286.600 272.759 284.724 C 272.781 283.692,272.640 282.749,272.445 282.628 C 272.250 282.507,271.966 281.732,271.814 280.904 C 271.662 280.077,271.275 278.500,270.954 277.400 C 270.633 276.300,270.096 274.410,269.761 273.200 C 268.526 268.739,267.485 265.366,266.950 264.086 C 266.647 263.364,266.403 262.554,266.406 262.286 C 266.413 261.657,264.848 256.572,264.144 254.940 C 263.845 254.246,263.600 253.199,263.600 252.613 C 263.600 252.027,263.406 251.185,263.169 250.743 C 262.747 249.953,261.956 247.367,261.169 244.200 C 260.951 243.320,260.508 242.033,260.186 241.340 C 259.864 240.646,259.600 239.902,259.600 239.685 C 259.600 239.469,259.331 238.776,259.002 238.146 C 258.674 237.516,258.404 236.594,258.402 236.099 C 258.401 235.603,258.040 234.525,257.600 233.704 C 257.160 232.884,256.800 231.810,256.800 231.319 C 256.800 230.457,256.087 228.538,254.949 226.338 C 254.647 225.754,254.394 225.034,254.386 224.738 C 254.379 224.442,254.025 223.480,253.600 222.600 C 253.175 221.720,252.821 220.595,252.814 220.100 C 252.806 219.605,252.622 219.200,252.405 219.200 C 252.187 219.200,251.895 218.483,251.755 217.608 C 251.615 216.732,251.253 215.810,250.950 215.559 C 250.648 215.307,250.400 214.746,250.400 214.311 C 250.400 213.472,249.650 211.549,248.376 209.121 C 247.949 208.307,247.600 207.294,247.600 206.870 C 247.600 206.445,247.330 205.874,247.000 205.600 C 246.670 205.326,246.400 204.824,246.400 204.484 C 246.400 204.144,245.770 202.720,245.000 201.319 C 243.240 198.118,243.253 197.393,245.105 195.354 C 247.676 192.524,250.160 189.550,251.200 188.056 C 251.750 187.267,252.665 186.166,253.233 185.610 C 253.802 185.055,254.699 183.972,255.228 183.205 C 255.757 182.438,256.462 181.525,256.795 181.176 C 258.096 179.813,260.682 176.640,264.800 171.356 C 266.826 168.756,270.913 163.794,271.188 163.600 C 271.344 163.490,272.041 162.608,272.736 161.641 C 273.775 160.193,276.800 156.696,280.000 153.242 C 280.330 152.886,281.578 151.248,282.774 149.601 C 283.970 147.955,285.244 146.336,285.604 146.004 C 285.965 145.672,286.953 144.500,287.800 143.400 C 288.648 142.300,289.849 140.915,290.471 140.323 C 291.092 139.730,291.600 139.132,291.600 138.993 C 291.600 138.854,292.566 137.603,293.746 136.212 C 294.926 134.821,296.097 133.439,296.348 133.141 C 296.599 132.844,297.899 131.250,299.237 129.600 C 300.575 127.950,302.074 126.121,302.568 125.535 C 303.062 124.949,304.352 123.352,305.433 121.986 C 306.515 120.620,308.235 118.579,309.257 117.451 C 310.278 116.323,311.984 114.320,313.047 113.000 C 314.111 111.680,315.391 110.152,315.891 109.604 C 316.391 109.056,316.800 108.404,316.800 108.154 C 316.800 107.903,317.475 106.974,318.300 106.089 C 320.637 103.580,322.400 101.450,322.400 101.135 C 322.400 100.626,321.664 100.374,321.404 100.793 C 321.030 101.398,241.913 101.353,241.308 100.748 C 240.692 100.132,236.551 104.423,232.188 110.200 C 231.357 111.300,230.165 112.696,229.540 113.302 C 228.914 113.908,227.749 115.348,226.950 116.502 C 226.150 117.656,225.004 119.063,224.402 119.629 C 223.799 120.194,222.698 121.480,221.953 122.485 C 219.796 125.397,216.725 129.187,215.100 130.944 C 214.275 131.835,213.596 132.753,213.591 132.982 C 213.575 133.755,209.277 138.000,208.511 138.000 C 207.547 138.000,206.766 137.360,205.582 135.600 C 205.064 134.830,204.406 134.056,204.120 133.880 C 203.834 133.704,203.600 133.401,203.600 133.206 C 203.600 133.011,202.889 132.070,202.019 131.114 C 201.149 130.159,199.934 128.631,199.319 127.719 C 198.704 126.807,197.210 124.938,196.000 123.565 C 194.790 122.193,193.547 120.713,193.237 120.277 C 192.927 119.841,192.054 118.846,191.296 118.066 C 190.538 117.286,189.627 116.187,189.271 115.624 C 188.505 114.413,184.976 110.196,183.717 108.987 C 183.231 108.521,182.026 107.099,181.039 105.829 C 180.053 104.558,178.380 102.946,177.323 102.246 L 175.400 100.974 165.400 101.195 C 156.003 101.403,153.582 101.296,151.232 100.570 C 150.300 100.282,150.287 100.304,150.886 101.159 M205.363 151.800 C 205.988 152.753,205.980 152.800,205.209 152.800 C 204.757 152.800,204.400 152.536,204.400 152.200 C 204.400 151.870,204.130 151.600,203.800 151.600 C 203.470 151.600,203.200 151.420,203.200 151.200 C 203.200 150.402,204.724 150.825,205.363 151.800 " stroke="none" fill="#075529" fill-rule="evenodd"></path></g></svg>