<svg id="svg" version="1.1" xmlns="http://www.w3.org/2000/svg" xmlns:xlink="http://www.w3.org/1999/xlink" width="400" height="400" viewBox="0, 0, 400,400"><g id="svgg"><path id="path0" d="M15.500 47.587 C 15.995 47.800,16.400 48.160,16.400 48.387 C 16.400 48.614,16.627 48.800,16.905 48.800 C 17.183 48.800,18.342 49.427,19.481 50.194 C 20.620 50.961,22.588 52.047,23.855 52.607 C 25.122 53.168,26.762 54.086,27.498 54.648 C 28.235 55.210,30.224 56.304,31.919 57.080 C 33.613 57.855,35.360 58.815,35.800 59.213 C 36.240 59.611,37.858 60.590,39.396 61.388 C 40.934 62.187,42.554 63.156,42.996 63.540 C 43.438 63.925,44.520 64.691,45.400 65.243 C 47.929 66.828,52.384 69.880,55.000 71.820 C 56.320 72.799,58.051 73.952,58.847 74.381 C 59.643 74.811,61.263 76.033,62.447 77.096 C 63.631 78.160,65.084 79.335,65.675 79.708 C 66.266 80.080,68.016 81.424,69.565 82.693 C 72.385 85.004,78.558 90.008,80.151 91.274 C 85.148 95.244,101.375 111.084,109.600 120.019 C 111.690 122.289,114.660 125.430,116.200 126.999 C 117.740 128.568,120.710 131.896,122.800 134.395 C 124.890 136.895,127.590 140.043,128.800 141.391 C 130.010 142.740,132.080 145.250,133.400 146.969 C 134.720 148.689,136.630 151.019,137.645 152.148 C 138.659 153.276,139.919 154.844,140.445 155.631 C 140.970 156.417,142.285 158.385,143.366 160.002 C 144.447 161.620,145.897 163.586,146.588 164.371 C 147.279 165.157,148.492 166.790,149.285 168.000 C 150.077 169.210,151.273 170.720,151.943 171.356 C 154.407 173.695,154.061 175.328,150.084 180.122 C 148.588 181.925,146.930 184.030,146.400 184.800 C 145.241 186.484,143.884 188.080,141.992 189.983 C 141.218 190.763,140.169 192.074,139.661 192.898 C 139.153 193.721,138.509 194.531,138.230 194.698 C 137.950 194.864,136.868 196.170,135.825 197.600 C 134.781 199.030,132.517 201.731,130.792 203.602 C 129.068 205.473,127.173 207.723,126.582 208.602 C 125.991 209.481,124.538 211.222,123.353 212.470 C 122.169 213.719,121.200 214.931,121.200 215.163 C 121.200 215.395,120.061 216.803,118.669 218.293 C 117.277 219.782,114.652 222.937,112.836 225.304 C 111.019 227.671,109.195 229.789,108.782 230.010 C 108.368 230.231,107.449 231.264,106.739 232.306 C 106.029 233.348,103.273 236.900,100.615 240.200 C 97.956 243.500,95.250 246.920,94.600 247.800 C 93.950 248.680,92.424 250.503,91.209 251.850 C 88.876 254.438,86.903 256.843,82.554 262.400 C 81.091 264.270,78.703 267.090,77.247 268.666 C 75.791 270.242,73.745 272.582,72.699 273.866 C 71.654 275.150,69.619 277.617,68.176 279.350 C 66.734 281.082,65.255 282.972,64.890 283.550 C 63.734 285.382,58.536 291.696,55.794 294.600 C 54.340 296.140,52.865 297.940,52.516 298.600 C 52.167 299.260,50.047 301.891,47.804 304.447 C 45.561 307.003,42.951 310.198,42.005 311.547 C 41.058 312.896,40.136 314.000,39.956 314.000 C 39.776 314.000,38.947 314.885,38.114 315.967 C 37.281 317.050,33.990 321.103,30.800 324.976 C 27.610 328.848,24.460 332.752,23.800 333.650 C 23.140 334.549,21.503 336.480,20.163 337.942 C 18.823 339.404,17.130 341.483,16.402 342.562 C 15.673 343.640,14.790 344.817,14.438 345.177 C 14.087 345.537,12.190 347.714,10.223 350.015 C 8.255 352.317,6.438 354.380,6.184 354.600 C 5.389 355.290,4.332 357.647,4.557 358.232 C 4.850 358.996,132.353 359.039,134.066 358.275 C 135.537 357.620,138.475 354.816,139.972 352.641 C 140.657 351.645,141.462 350.688,141.760 350.515 C 142.059 350.342,142.751 349.535,143.299 348.722 C 144.150 347.458,148.969 341.482,150.197 340.168 C 150.418 339.930,151.500 338.523,152.600 337.039 C 153.700 335.556,155.410 333.486,156.400 332.439 C 159.014 329.674,159.604 328.966,162.426 325.200 C 163.828 323.330,165.970 320.693,167.187 319.339 C 169.137 317.170,171.116 314.755,176.062 308.511 C 182.458 300.435,185.754 296.533,190.200 291.773 C 191.740 290.125,193.630 287.823,194.400 286.657 C 195.170 285.492,196.562 283.653,197.493 282.569 C 199.191 280.594,202.562 276.549,203.134 275.800 C 203.302 275.580,203.863 274.646,204.380 273.723 C 206.908 269.218,210.300 271.098,212.457 278.200 C 212.925 279.740,214.020 282.509,214.891 284.353 C 216.848 288.499,220.104 296.380,222.843 303.600 C 223.469 305.250,224.803 308.670,225.807 311.200 C 227.692 315.948,229.243 320.364,231.216 326.600 C 231.843 328.580,233.366 333.170,234.601 336.800 C 236.934 343.655,239.767 353.169,240.203 355.605 C 240.341 356.378,240.762 357.419,241.139 357.919 L 241.824 358.827 259.509 358.839 C 280.291 358.852,279.372 359.081,277.039 354.477 C 276.511 353.435,274.724 348.536,273.068 343.591 C 268.893 331.122,268.288 329.437,266.399 324.998 C 265.486 322.853,264.190 319.456,263.518 317.449 C 262.846 315.442,262.137 313.598,261.942 313.351 C 261.746 313.104,260.796 310.764,259.830 308.151 C 257.719 302.439,255.329 296.828,254.656 296.002 C 254.386 295.671,253.930 294.680,253.642 293.800 C 253.354 292.920,252.327 290.573,251.359 288.585 C 250.392 286.596,249.600 284.724,249.600 284.423 C 249.600 283.821,247.915 279.973,246.962 278.400 C 246.629 277.850,246.077 276.770,245.734 276.000 C 245.392 275.230,244.055 272.409,242.763 269.731 C 241.471 267.052,239.518 263.002,238.423 260.731 C 237.329 258.459,235.803 255.520,235.033 254.200 C 234.262 252.880,233.516 251.530,233.374 251.200 C 232.315 248.740,227.322 239.171,225.652 236.400 C 224.524 234.530,223.601 232.789,223.601 232.531 C 223.600 232.273,223.176 231.553,222.657 230.931 C 221.492 229.534,218.747 224.796,216.782 220.794 C 215.971 219.141,214.858 217.251,214.308 216.594 C 213.759 215.938,212.908 214.609,212.417 213.642 C 211.926 212.675,211.085 211.415,210.549 210.842 C 210.012 210.269,209.094 208.810,208.508 207.600 C 207.922 206.390,206.700 204.500,205.791 203.400 C 204.883 202.300,203.548 200.320,202.826 199.000 C 202.103 197.680,201.101 196.150,200.599 195.600 C 200.097 195.050,198.475 192.800,196.993 190.600 C 195.512 188.400,193.981 186.240,193.592 185.800 C 193.203 185.360,191.602 183.110,190.035 180.800 C 188.467 178.490,186.541 175.790,185.753 174.800 C 184.966 173.810,183.934 172.514,183.461 171.920 C 182.987 171.326,181.880 169.805,181.000 168.541 C 180.120 167.277,178.664 165.423,177.765 164.422 C 176.866 163.420,175.015 161.070,173.652 159.200 C 169.799 153.915,166.080 149.463,163.791 147.397 C 163.302 146.955,162.229 145.695,161.407 144.597 C 160.585 143.499,158.447 141.160,156.655 139.400 C 154.864 137.640,152.133 134.760,150.587 133.000 C 146.120 127.913,129.701 111.672,127.867 110.527 C 126.950 109.954,125.030 108.349,123.600 106.961 C 122.170 105.572,120.346 103.933,119.546 103.318 C 118.747 102.703,116.767 101.108,115.146 99.773 C 113.526 98.438,111.390 96.769,110.400 96.065 C 109.410 95.360,107.340 93.793,105.800 92.583 C 104.260 91.373,101.830 89.600,100.400 88.643 C 98.970 87.687,97.374 86.526,96.852 86.064 C 96.331 85.602,95.521 85.103,95.052 84.955 C 94.584 84.807,93.398 83.982,92.418 83.120 C 91.437 82.259,89.148 80.656,87.329 79.557 C 85.510 78.459,83.920 77.394,83.795 77.192 C 83.670 76.990,82.025 75.964,80.139 74.912 C 78.254 73.860,75.966 72.570,75.056 72.044 C 74.145 71.519,70.430 69.562,66.800 67.696 C 63.170 65.830,59.722 63.965,59.138 63.552 C 58.554 63.138,57.813 62.800,57.491 62.800 C 57.168 62.800,55.148 61.900,53.000 60.800 C 50.852 59.700,48.711 58.800,48.241 58.800 C 47.770 58.800,46.736 58.358,45.941 57.819 C 45.147 57.279,42.450 56.099,39.949 55.197 C 37.447 54.295,34.753 53.211,33.961 52.787 C 33.170 52.364,31.550 51.812,30.361 51.560 C 29.173 51.308,27.554 50.775,26.765 50.376 C 24.728 49.346,18.532 47.540,16.400 47.356 C 14.975 47.232,14.788 47.280,15.500 47.587 " stroke="none" fill="#049232" fill-rule="evenodd"></path><path id="path1" d="M121.052 42.510 C 120.352 43.024,120.782 44.800,121.607 44.800 C 121.725 44.800,123.167 45.877,124.811 47.193 C 126.455 48.510,127.995 49.590,128.233 49.593 C 128.472 49.597,129.282 50.204,130.033 50.943 C 130.785 51.682,132.192 52.852,133.161 53.544 C 134.986 54.847,136.364 56.019,141.822 60.912 C 143.594 62.500,146.098 64.700,147.386 65.800 C 148.675 66.900,151.635 69.621,153.964 71.847 C 156.294 74.073,158.868 76.470,159.685 77.175 C 160.501 77.880,161.530 79.040,161.971 79.753 C 162.412 80.467,163.832 81.873,165.127 82.879 C 166.422 83.884,168.001 85.431,168.637 86.315 C 169.273 87.200,170.292 88.256,170.901 88.662 C 171.511 89.068,173.762 91.453,175.905 93.962 C 178.047 96.471,180.250 98.959,180.800 99.491 C 181.350 100.022,182.214 100.849,182.719 101.328 C 183.224 101.808,184.295 103.190,185.097 104.400 C 185.900 105.610,187.912 107.999,189.567 109.709 C 191.223 111.418,192.741 113.128,192.940 113.509 C 193.139 113.889,194.068 115.010,195.003 116.000 C 195.939 116.990,197.379 118.790,198.203 120.000 C 199.027 121.210,200.107 122.650,200.603 123.200 C 201.099 123.750,202.592 125.730,203.919 127.600 C 205.246 129.470,206.945 131.630,207.695 132.400 C 209.065 133.807,212.400 138.184,212.400 138.575 C 212.400 139.126,215.479 143.500,217.219 145.421 C 218.293 146.607,219.565 148.348,220.044 149.289 C 220.522 150.230,221.663 151.900,222.579 153.000 C 223.494 154.100,224.842 156.170,225.575 157.600 C 226.307 159.030,227.492 160.830,228.209 161.600 C 228.926 162.370,229.647 163.450,229.811 164.000 C 230.186 165.255,232.264 168.313,233.473 169.387 C 233.976 169.834,235.037 171.460,235.830 173.000 C 236.623 174.540,237.480 176.052,237.736 176.361 C 238.726 177.557,240.817 181.149,242.415 184.400 C 243.335 186.270,244.593 188.340,245.211 189.000 C 245.828 189.660,247.075 191.615,247.980 193.344 C 248.885 195.073,250.053 197.053,250.575 197.744 C 251.097 198.435,252.111 200.170,252.828 201.600 C 253.545 203.030,254.782 205.190,255.577 206.400 C 256.372 207.610,257.437 209.568,257.944 210.751 C 258.451 211.935,259.485 213.783,260.242 214.860 C 261.582 216.766,263.600 220.884,263.600 221.712 C 263.600 221.939,264.060 222.727,264.622 223.464 C 265.184 224.201,266.189 226.018,266.856 227.502 C 267.522 228.986,268.422 230.830,268.856 231.600 C 269.289 232.370,270.593 234.980,271.753 237.400 C 272.912 239.820,274.305 242.520,274.848 243.400 C 275.391 244.280,277.055 247.700,278.546 251.000 C 280.036 254.300,281.425 257.270,281.631 257.600 C 281.837 257.930,282.113 258.470,282.244 258.800 C 282.376 259.130,283.184 260.881,284.042 262.692 C 284.899 264.502,285.600 266.094,285.600 266.229 C 285.600 266.364,286.340 267.943,287.245 269.737 C 288.150 271.532,289.244 273.897,289.676 274.993 C 290.108 276.089,290.921 277.979,291.482 279.193 C 292.042 280.407,293.098 282.869,293.827 284.664 C 294.556 286.459,295.960 289.699,296.947 291.864 C 297.934 294.029,299.585 298.140,300.615 301.000 C 301.646 303.860,302.805 306.830,303.191 307.600 C 303.577 308.370,304.480 310.620,305.197 312.600 C 305.915 314.580,306.732 316.650,307.013 317.200 C 307.295 317.750,308.245 320.360,309.126 323.000 C 311.763 330.904,313.439 335.523,313.873 336.077 C 314.598 337.003,316.400 341.127,316.406 341.875 C 316.411 342.490,316.471 342.509,316.800 342.000 C 317.367 341.123,317.285 338.640,316.632 336.908 C 316.319 336.079,315.951 334.680,315.814 333.800 C 315.676 332.920,315.051 330.490,314.424 328.400 C 313.345 324.804,312.990 323.528,311.471 317.800 C 311.121 316.480,310.103 312.970,309.208 310.000 C 308.313 307.030,307.145 302.980,306.613 301.000 C 304.976 294.916,304.788 294.258,304.153 292.400 C 303.815 291.410,303.377 290.240,303.181 289.800 C 302.325 287.884,301.184 283.896,300.391 280.045 C 299.635 276.376,299.071 274.570,298.002 272.387 C 297.837 272.050,297.572 271.150,297.413 270.387 C 297.030 268.547,294.392 260.709,293.984 260.197 C 293.807 259.975,293.380 258.576,293.035 257.088 C 292.690 255.600,292.042 253.666,291.594 252.789 C 291.147 251.912,290.494 249.801,290.143 248.098 C 289.792 246.394,288.924 243.830,288.214 242.400 C 287.504 240.970,286.605 238.810,286.217 237.600 C 285.828 236.390,285.083 234.488,284.562 233.374 C 284.040 232.259,283.021 229.537,282.297 227.324 C 281.573 225.111,280.789 223.052,280.554 222.750 C 280.319 222.447,279.706 220.850,279.191 219.200 C 278.677 217.550,278.119 215.930,277.951 215.600 C 277.235 214.188,273.600 205.945,273.600 205.732 C 273.600 205.603,272.700 203.727,271.600 201.562 C 269.219 196.875,269.125 195.819,270.918 193.862 C 273.233 191.334,274.175 190.234,275.249 188.800 C 275.826 188.030,277.244 186.410,278.400 185.200 C 279.556 183.990,281.092 182.100,281.813 181.000 C 282.533 179.900,283.878 178.280,284.800 177.400 C 285.722 176.520,287.086 174.857,287.831 173.704 C 288.576 172.551,289.635 171.216,290.185 170.738 C 290.736 170.259,292.487 168.143,294.077 166.034 C 295.667 163.925,297.856 161.213,298.941 160.006 C 300.026 158.799,301.375 157.089,301.938 156.206 C 302.502 155.323,304.054 153.430,305.387 152.000 C 306.720 150.570,308.439 148.530,309.206 147.466 C 309.973 146.402,311.921 144.062,313.536 142.266 C 315.151 140.470,316.762 138.550,317.117 138.000 C 317.471 137.450,319.050 135.560,320.624 133.800 C 322.199 132.040,324.145 129.570,324.949 128.311 C 325.752 127.053,326.754 125.839,327.175 125.613 C 328.005 125.169,330.710 121.730,332.606 118.708 C 333.259 117.668,334.260 116.624,334.830 116.387 C 335.445 116.133,336.743 114.620,338.013 112.679 C 339.193 110.876,341.282 108.287,342.655 106.927 C 344.028 105.567,345.455 103.857,345.827 103.127 C 346.198 102.397,347.432 100.810,348.568 99.600 C 349.704 98.390,351.160 96.680,351.802 95.800 C 352.445 94.920,354.250 92.760,355.813 91.000 C 357.376 89.240,359.254 86.900,359.985 85.800 C 360.717 84.700,362.080 83.127,363.015 82.305 C 363.951 81.483,365.401 79.777,366.240 78.514 C 367.782 76.190,370.494 72.887,373.557 69.600 C 374.479 68.610,376.685 65.877,378.459 63.527 C 380.232 61.177,381.934 59.157,382.241 59.039 C 382.549 58.922,383.646 57.518,384.679 55.920 C 385.713 54.322,386.934 52.652,387.393 52.207 C 387.851 51.763,389.121 50.332,390.213 49.026 C 391.306 47.720,392.599 46.215,393.087 45.681 C 394.025 44.655,394.614 43.280,394.265 42.931 C 394.150 42.817,365.918 42.742,331.528 42.766 C 296.968 42.790,268.037 42.652,266.847 42.456 C 265.663 42.262,264.403 42.192,264.047 42.301 C 263.345 42.517,256.351 49.946,256.078 50.767 C 255.986 51.043,255.165 52.018,254.254 52.934 C 253.343 53.850,251.938 55.590,251.132 56.800 C 250.326 58.010,248.830 59.810,247.807 60.800 C 246.784 61.790,244.712 64.313,243.202 66.407 C 241.693 68.501,239.387 71.291,238.078 72.607 C 236.769 73.923,235.145 75.900,234.470 77.000 C 233.794 78.100,232.466 79.726,231.518 80.613 C 230.569 81.500,229.082 83.300,228.212 84.613 C 227.342 85.926,225.742 87.890,224.656 88.979 C 223.570 90.067,221.992 92.023,221.150 93.326 C 218.736 97.061,214.301 101.600,213.065 101.600 C 211.856 101.600,212.157 101.920,207.625 95.800 C 205.670 93.160,203.326 90.163,202.417 89.140 C 201.507 88.117,200.234 86.482,199.588 85.507 C 198.941 84.531,197.189 82.308,195.694 80.567 C 194.198 78.825,192.592 76.901,192.123 76.292 C 191.655 75.682,189.824 73.612,188.055 71.692 C 186.286 69.771,184.355 67.480,183.764 66.600 C 183.173 65.720,181.763 63.920,180.631 62.600 C 179.498 61.280,177.915 59.390,177.112 58.400 C 176.309 57.410,174.290 55.163,172.626 53.406 C 170.962 51.650,169.600 50.071,169.600 49.897 C 169.600 49.345,166.434 46.124,164.192 44.394 L 162.026 42.723 142.713 42.623 C 132.091 42.568,123.040 42.397,122.600 42.242 C 122.130 42.078,121.491 42.188,121.052 42.510 M173.709 331.200 C 173.709 332.190,173.787 332.595,173.882 332.100 C 173.978 331.605,173.978 330.795,173.882 330.300 C 173.787 329.805,173.709 330.210,173.709 331.200 " stroke="none" fill="#046132" fill-rule="evenodd"></path></g></svg>